<svg xmlns="http://www.w3.org/2000/svg" xmlns:xlink="http://www.w3.org/1999/xlink" width="500" zoomAndPan="magnify" viewBox="0 0 375 374.999991" height="500" preserveAspectRatio="xMidYMid meet" version="1.0"><defs><clipPath id="df6374f9ba"><path d="M 79.199219 76.371094 L 295.949219 76.371094 L 295.949219 298.371094 L 79.199219 298.371094 Z M 79.199219 76.371094 " clip-rule="nonzero"/></clipPath></defs><g clip-path="url(#df6374f9ba)"><path fill="#ffc857" d="M 229.691406 291.625 L 234.183594 298.351562 L 295.949219 298.351562 L 291.457031 291.625 L 229.691406 291.625 M 222.953125 281.539062 L 227.445312 288.261719 L 289.210938 288.261719 L 284.71875 281.539062 L 222.953125 281.539062 M 216.214844 271.449219 L 220.707031 278.175781 L 282.472656 278.175781 L 277.980469 271.449219 L 216.214844 271.449219 M 209.472656 261.359375 L 213.96875 268.085938 L 275.734375 268.085938 L 271.242188 261.359375 L 209.472656 261.359375 M 202.734375 251.269531 L 207.226562 257.996094 L 268.996094 257.996094 L 264.503906 251.269531 L 202.734375 251.269531 M 195.996094 241.179688 L 200.488281 247.90625 L 262.257812 247.90625 L 257.765625 241.179688 L 195.996094 241.179688 M 189.257812 231.089844 L 193.75 237.816406 L 255.519531 237.816406 L 251.027344 231.089844 L 189.257812 231.089844 M 182.519531 221.003906 L 187.011719 227.726562 L 248.78125 227.726562 L 244.289062 221.003906 L 182.519531 221.003906 M 79.199219 76.390625 L 211.722656 76.390625 C 213.503906 76.390625 215.28125 76.503906 217.054688 76.730469 C 218.828125 76.957031 220.589844 77.296875 222.339844 77.746094 C 224.085938 78.199219 225.8125 78.757812 227.519531 79.429688 C 229.226562 80.101562 230.902344 80.878906 232.546875 81.765625 C 234.195312 82.652344 235.804688 83.640625 237.375 84.730469 C 238.949219 85.820312 240.476562 87.007812 241.957031 88.292969 C 243.441406 89.578125 244.871094 90.953125 246.246094 92.421875 C 247.625 93.886719 248.945312 95.441406 250.203125 97.074219 C 251.464844 98.710938 252.660156 100.421875 253.792969 102.210938 C 254.921875 104 255.984375 105.855469 256.972656 107.777344 C 257.964844 109.699219 258.878906 111.683594 259.71875 113.722656 C 260.558594 115.761719 261.320312 117.851562 262.003906 119.988281 C 262.683594 122.125 263.285156 124.300781 263.800781 126.511719 C 264.320312 128.726562 264.753906 130.96875 265.101562 133.234375 C 265.449219 135.503906 265.710938 137.789062 265.882812 140.09375 C 266.058594 142.394531 266.144531 144.703125 266.144531 147.015625 C 266.144531 149.328125 266.058594 151.636719 265.882812 153.9375 C 265.710938 156.238281 265.449219 158.523438 265.101562 160.792969 C 264.753906 163.0625 264.320312 165.300781 263.800781 167.515625 C 263.285156 169.730469 262.683594 171.902344 262.003906 174.042969 C 261.320312 176.179688 260.558594 178.265625 259.71875 180.304688 C 258.878906 182.347656 257.964844 184.328125 256.972656 186.25 C 255.984375 188.175781 254.921875 190.03125 253.792969 191.816406 C 252.660156 193.605469 251.464844 195.316406 250.203125 196.953125 C 248.945312 198.589844 247.625 200.140625 246.246094 201.609375 C 244.871094 203.074219 243.441406 204.453125 241.957031 205.738281 C 240.476562 207.023438 238.949219 208.210938 237.375 209.300781 C 235.804688 210.390625 234.195312 211.378906 232.546875 212.261719 C 230.902344 213.148438 229.226562 213.925781 227.519531 214.597656 C 225.8125 215.269531 224.085938 215.832031 222.339844 216.28125 C 220.589844 216.734375 218.828125 217.070312 217.054688 217.300781 C 215.28125 217.527344 213.503906 217.640625 211.722656 217.640625 L 180.273438 217.640625 L 175.78125 210.914062 L 211.722656 210.914062 C 213.332031 210.910156 214.941406 210.808594 216.546875 210.601562 C 218.152344 210.398438 219.742188 210.089844 221.324219 209.679688 C 222.90625 209.273438 224.46875 208.765625 226.011719 208.15625 C 227.554688 207.546875 229.070312 206.84375 230.558594 206.042969 C 232.050781 205.242188 233.503906 204.347656 234.925781 203.359375 C 236.347656 202.375 237.730469 201.300781 239.070312 200.136719 C 240.410156 198.972656 241.703125 197.726562 242.949219 196.402344 C 244.195312 195.074219 245.390625 193.667969 246.527344 192.191406 C 247.667969 190.710938 248.75 189.160156 249.773438 187.542969 C 250.796875 185.925781 251.753906 184.246094 252.648438 182.507812 C 253.546875 180.769531 254.375 178.976562 255.132812 177.128906 C 255.894531 175.285156 256.582031 173.394531 257.199219 171.460938 C 257.816406 169.527344 258.359375 167.5625 258.824219 165.558594 C 259.292969 163.558594 259.683594 161.53125 260 159.476562 C 260.3125 157.425781 260.550781 155.359375 260.707031 153.277344 C 260.867188 151.195312 260.945312 149.105469 260.945312 147.015625 C 260.945312 144.921875 260.867188 142.835938 260.707031 140.753906 C 260.550781 138.671875 260.3125 136.601562 260 134.550781 C 259.683594 132.5 259.292969 130.472656 258.824219 128.46875 C 258.359375 126.46875 257.816406 124.5 257.199219 122.566406 C 256.582031 120.632812 255.894531 118.746094 255.132812 116.898438 C 254.375 115.054688 253.546875 113.261719 252.648438 111.519531 C 251.753906 109.78125 250.796875 108.101562 249.773438 106.484375 C 248.75 104.867188 247.667969 103.320312 246.527344 101.839844 C 245.390625 100.359375 244.195312 98.957031 242.949219 97.628906 C 241.703125 96.300781 240.410156 95.054688 239.070312 93.890625 C 237.730469 92.730469 236.347656 91.65625 234.925781 90.667969 C 233.503906 89.679688 232.050781 88.789062 230.558594 87.984375 C 229.070312 87.183594 227.554688 86.480469 226.011719 85.871094 C 224.46875 85.265625 222.90625 84.757812 221.324219 84.347656 C 219.742188 83.9375 218.152344 83.632812 216.546875 83.425781 C 214.941406 83.21875 213.332031 83.117188 211.722656 83.117188 L 90.429688 83.117188 C 90.132812 83.117188 89.847656 83.171875 89.570312 83.285156 C 89.296875 83.398438 89.054688 83.5625 88.84375 83.773438 C 88.632812 83.984375 88.46875 84.226562 88.355469 84.5 C 88.242188 84.773438 88.183594 85.0625 88.183594 85.359375 C 88.183594 85.65625 88.242188 85.941406 88.355469 86.214844 C 88.46875 86.492188 88.632812 86.734375 88.84375 86.945312 C 89.054688 87.152344 89.296875 87.316406 89.570312 87.429688 C 89.847656 87.542969 90.132812 87.601562 90.429688 87.601562 L 211.722656 87.601562 C 213.21875 87.601562 214.714844 87.695312 216.207031 87.886719 C 217.699219 88.078125 219.183594 88.363281 220.652344 88.742188 C 222.125 89.121094 223.578125 89.59375 225.011719 90.160156 C 226.445312 90.722656 227.855469 91.378906 229.242188 92.121094 C 230.628906 92.867188 231.980469 93.699219 233.304688 94.617188 C 234.625 95.53125 235.910156 96.53125 237.15625 97.613281 C 238.40625 98.695312 239.609375 99.851562 240.765625 101.085938 C 241.925781 102.320312 243.035156 103.625 244.097656 105.003906 C 245.15625 106.378906 246.164062 107.816406 247.113281 109.324219 C 248.066406 110.828125 248.957031 112.386719 249.789062 114.003906 C 250.625 115.625 251.394531 117.289062 252.101562 119.007812 C 252.808594 120.722656 253.449219 122.480469 254.023438 124.277344 C 254.59375 126.074219 255.101562 127.90625 255.535156 129.765625 C 255.96875 131.628906 256.335938 133.515625 256.628906 135.421875 C 256.917969 137.332031 257.140625 139.253906 257.285156 141.191406 C 257.433594 143.128906 257.507812 145.070312 257.507812 147.015625 C 257.507812 148.960938 257.433594 150.902344 257.285156 152.839844 C 257.140625 154.773438 256.917969 156.695312 256.628906 158.605469 C 256.335938 160.515625 255.96875 162.398438 255.535156 164.261719 C 255.101562 166.125 254.59375 167.953125 254.023438 169.75 C 253.449219 171.550781 252.808594 173.304688 252.101562 175.023438 C 251.394531 176.738281 250.625 178.40625 249.789062 180.023438 C 248.957031 181.640625 248.066406 183.203125 247.113281 184.707031 C 246.164062 186.210938 245.15625 187.652344 244.097656 189.027344 C 243.035156 190.402344 241.925781 191.707031 240.765625 192.941406 C 239.609375 194.175781 238.40625 195.335938 237.15625 196.414062 C 235.910156 197.496094 234.625 198.496094 233.304688 199.414062 C 231.980469 200.332031 230.628906 201.160156 229.242188 201.90625 C 227.855469 202.652344 226.445312 203.304688 225.011719 203.871094 C 223.578125 204.433594 222.125 204.90625 220.652344 205.285156 C 219.183594 205.667969 217.699219 205.953125 216.207031 206.144531 C 214.714844 206.332031 213.21875 206.429688 211.722656 206.429688 L 173.535156 206.429688 L 169.042969 199.703125 L 211.722656 199.703125 C 213.050781 199.703125 214.378906 199.617188 215.699219 199.449219 C 217.023438 199.28125 218.335938 199.027344 219.640625 198.691406 C 220.945312 198.351562 222.234375 197.933594 223.507812 197.433594 C 224.78125 196.933594 226.03125 196.351562 227.257812 195.691406 C 228.488281 195.03125 229.6875 194.292969 230.859375 193.480469 C 232.035156 192.667969 233.171875 191.78125 234.277344 190.824219 C 235.382812 189.863281 236.449219 188.835938 237.480469 187.742188 C 238.507812 186.648438 239.492188 185.492188 240.429688 184.269531 C 241.371094 183.050781 242.261719 181.773438 243.105469 180.4375 C 243.949219 179.105469 244.742188 177.722656 245.480469 176.285156 C 246.21875 174.851562 246.902344 173.375 247.527344 171.851562 C 248.15625 170.328125 248.722656 168.773438 249.234375 167.175781 C 249.742188 165.582031 250.1875 163.960938 250.574219 162.308594 C 250.960938 160.65625 251.285156 158.984375 251.542969 157.292969 C 251.804688 155.601562 251.996094 153.894531 252.128906 152.179688 C 252.257812 150.460938 252.324219 148.738281 252.324219 147.015625 C 252.324219 145.289062 252.257812 143.566406 252.128906 141.851562 C 251.996094 140.132812 251.804688 138.429688 251.542969 136.734375 C 251.285156 135.042969 250.960938 133.371094 250.574219 131.71875 C 250.1875 130.070312 249.742188 128.445312 249.234375 126.851562 C 248.722656 125.257812 248.15625 123.699219 247.527344 122.175781 C 246.902344 120.65625 246.21875 119.175781 245.480469 117.742188 C 244.742188 116.308594 243.949219 114.921875 243.105469 113.589844 C 242.261719 112.253906 241.371094 110.976562 240.429688 109.757812 C 239.492188 108.539062 238.507812 107.378906 237.480469 106.285156 C 236.449219 105.191406 235.382812 104.164062 234.277344 103.207031 C 233.171875 102.246094 232.035156 101.359375 230.859375 100.546875 C 229.6875 99.734375 228.488281 98.996094 227.257812 98.335938 C 226.03125 97.675781 224.78125 97.097656 223.507812 96.59375 C 222.234375 96.09375 220.945312 95.675781 219.640625 95.339844 C 218.335938 95 217.023438 94.75 215.699219 94.578125 C 214.378906 94.410156 213.050781 94.328125 211.722656 94.328125 L 127.492188 94.328125 C 127.195312 94.328125 126.90625 94.382812 126.632812 94.496094 C 126.355469 94.609375 126.113281 94.773438 125.902344 94.984375 C 125.691406 95.191406 125.53125 95.4375 125.417969 95.710938 C 125.300781 95.984375 125.246094 96.269531 125.246094 96.566406 C 125.246094 96.867188 125.300781 97.152344 125.417969 97.425781 C 125.53125 97.699219 125.691406 97.945312 125.902344 98.152344 C 126.113281 98.363281 126.355469 98.527344 126.632812 98.640625 C 126.90625 98.753906 127.195312 98.808594 127.492188 98.808594 L 211.722656 98.808594 C 212.953125 98.808594 214.179688 98.886719 215.402344 99.046875 C 216.628906 99.203125 217.84375 99.4375 219.050781 99.746094 C 220.257812 100.058594 221.453125 100.445312 222.628906 100.910156 C 223.808594 101.375 224.964844 101.910156 226.101562 102.523438 C 227.238281 103.132812 228.351562 103.816406 229.433594 104.566406 C 230.519531 105.320312 231.574219 106.140625 232.597656 107.027344 C 233.621094 107.914062 234.609375 108.867188 235.5625 109.878906 C 236.511719 110.890625 237.421875 111.964844 238.292969 113.09375 C 239.164062 114.222656 239.988281 115.40625 240.769531 116.640625 C 241.550781 117.875 242.28125 119.15625 242.964844 120.484375 C 243.652344 121.8125 244.28125 123.179688 244.863281 124.585938 C 245.441406 125.996094 245.96875 127.4375 246.4375 128.914062 C 246.910156 130.390625 247.324219 131.890625 247.683594 133.417969 C 248.039062 134.949219 248.335938 136.496094 248.578125 138.0625 C 248.816406 139.628906 249 141.207031 249.117188 142.796875 C 249.238281 144.382812 249.300781 145.976562 249.300781 147.574219 C 249.300781 149.171875 249.238281 150.765625 249.117188 152.355469 C 249 153.945312 248.816406 155.523438 248.578125 157.089844 C 248.335938 158.65625 248.039062 160.203125 247.683594 161.730469 C 247.324219 163.257812 246.910156 164.761719 246.4375 166.234375 C 245.96875 167.710938 245.441406 169.152344 244.863281 170.5625 C 244.28125 171.972656 243.652344 173.339844 242.964844 174.667969 C 242.28125 175.996094 241.550781 177.277344 240.769531 178.511719 C 239.988281 179.746094 239.164062 180.925781 238.292969 182.054688 C 237.421875 183.1875 236.511719 184.257812 235.5625 185.269531 C 234.609375 186.285156 233.621094 187.234375 232.597656 188.121094 C 231.574219 189.007812 230.519531 189.828125 229.433594 190.582031 C 228.351562 191.335938 227.238281 192.015625 226.101562 192.628906 C 224.964844 193.238281 223.808594 193.777344 222.628906 194.238281 C 221.453125 194.703125 220.257812 195.089844 219.050781 195.402344 C 217.84375 195.714844 216.628906 195.949219 215.402344 196.105469 C 214.179688 196.261719 212.953125 196.339844 211.722656 196.339844 L 166.796875 196.339844 L 162.304688 189.613281 L 211.722656 189.613281 C 212.78125 189.613281 213.839844 189.546875 214.894531 189.410156 C 215.953125 189.277344 217 189.074219 218.039062 188.804688 C 219.082031 188.535156 220.109375 188.203125 221.125 187.804688 C 222.140625 187.402344 223.136719 186.941406 224.117188 186.414062 C 225.097656 185.886719 226.054688 185.296875 226.992188 184.648438 C 227.925781 184 228.835938 183.292969 229.71875 182.527344 C 230.601562 181.761719 231.453125 180.945312 232.273438 180.070312 C 233.09375 179.199219 233.878906 178.273438 234.628906 177.300781 C 235.378906 176.328125 236.089844 175.308594 236.761719 174.242188 C 237.4375 173.179688 238.066406 172.074219 238.65625 170.929688 C 239.246094 169.785156 239.792969 168.605469 240.292969 167.390625 C 240.792969 166.175781 241.246094 164.933594 241.652344 163.664062 C 242.054688 162.390625 242.414062 161.09375 242.722656 159.777344 C 243.03125 158.460938 243.285156 157.125 243.492188 155.777344 C 243.699219 154.425781 243.855469 153.066406 243.960938 151.695312 C 244.066406 150.324219 244.117188 148.953125 244.117188 147.574219 C 244.117188 146.199219 244.066406 144.824219 243.960938 143.453125 C 243.855469 142.085938 243.699219 140.722656 243.492188 139.375 C 243.285156 138.023438 243.03125 136.6875 242.722656 135.371094 C 242.414062 134.054688 242.054688 132.757812 241.652344 131.488281 C 241.246094 130.214844 240.792969 128.972656 240.292969 127.757812 C 239.792969 126.542969 239.246094 125.363281 238.65625 124.21875 C 238.066406 123.074219 237.4375 121.96875 236.761719 120.90625 C 236.089844 119.839844 235.378906 118.824219 234.628906 117.847656 C 233.878906 116.875 233.09375 115.953125 232.273438 115.078125 C 231.453125 114.207031 230.601562 113.386719 229.71875 112.621094 C 228.835938 111.855469 227.925781 111.148438 226.992188 110.5 C 226.054688 109.851562 225.097656 109.261719 224.117188 108.738281 C 223.136719 108.210938 222.140625 107.746094 221.125 107.347656 C 220.109375 106.945312 219.082031 106.613281 218.039062 106.34375 C 217 106.074219 215.953125 105.875 214.894531 105.738281 C 213.839844 105.605469 212.78125 105.535156 211.722656 105.535156 L 161.183594 105.535156 C 160.886719 105.535156 160.597656 105.59375 160.324219 105.707031 C 160.046875 105.820312 159.804688 105.984375 159.59375 106.191406 C 159.382812 106.402344 159.222656 106.644531 159.109375 106.921875 C 158.992188 107.195312 158.9375 107.480469 158.9375 107.777344 C 158.9375 108.074219 158.992188 108.363281 159.109375 108.636719 C 159.222656 108.910156 159.382812 109.152344 159.59375 109.363281 C 159.804688 109.574219 160.046875 109.734375 160.324219 109.851562 C 160.597656 109.964844 160.886719 110.019531 161.183594 110.019531 L 211.722656 110.019531 C 212.667969 110.019531 213.613281 110.082031 214.558594 110.203125 C 215.5 110.320312 216.4375 110.503906 217.367188 110.742188 C 218.296875 110.980469 219.214844 111.28125 220.121094 111.636719 C 221.027344 111.996094 221.921875 112.410156 222.796875 112.878906 C 223.671875 113.351562 224.527344 113.875 225.363281 114.453125 C 226.199219 115.035156 227.011719 115.667969 227.800781 116.347656 C 228.585938 117.03125 229.347656 117.765625 230.082031 118.546875 C 230.8125 119.324219 231.515625 120.148438 232.183594 121.019531 C 232.855469 121.890625 233.492188 122.800781 234.09375 123.75 C 234.691406 124.703125 235.257812 125.6875 235.785156 126.710938 C 236.308594 127.734375 236.796875 128.789062 237.242188 129.871094 C 237.691406 130.957031 238.09375 132.066406 238.457031 133.203125 C 238.820312 134.339844 239.140625 135.496094 239.414062 136.671875 C 239.691406 137.851562 239.921875 139.042969 240.105469 140.25 C 240.289062 141.453125 240.429688 142.667969 240.523438 143.894531 C 240.613281 145.117188 240.660156 146.34375 240.660156 147.574219 C 240.660156 148.804688 240.613281 150.03125 240.523438 151.253906 C 240.429688 152.480469 240.289062 153.695312 240.105469 154.902344 C 239.921875 156.109375 239.691406 157.300781 239.414062 158.476562 C 239.140625 159.652344 238.820312 160.808594 238.457031 161.945312 C 238.09375 163.082031 237.691406 164.191406 237.242188 165.277344 C 236.796875 166.363281 236.308594 167.417969 235.785156 168.4375 C 235.257812 169.460938 234.691406 170.449219 234.09375 171.398438 C 233.492188 172.351562 232.855469 173.261719 232.183594 174.128906 C 231.515625 175 230.8125 175.824219 230.082031 176.605469 C 229.347656 177.386719 228.585938 178.117188 227.800781 178.800781 C 227.011719 179.484375 226.199219 180.113281 225.363281 180.695312 C 224.527344 181.273438 223.671875 181.800781 222.796875 182.269531 C 221.921875 182.742188 221.027344 183.15625 220.121094 183.511719 C 219.214844 183.871094 218.296875 184.167969 217.367188 184.40625 C 216.4375 184.648438 215.5 184.828125 214.558594 184.949219 C 213.613281 185.070312 212.667969 185.128906 211.722656 185.128906 L 160.058594 185.128906 L 155.566406 178.402344 L 211.722656 178.402344 C 212.5 178.402344 213.273438 178.355469 214.050781 178.253906 C 214.824219 178.15625 215.59375 178.007812 216.355469 177.8125 C 217.117188 177.613281 217.871094 177.367188 218.617188 177.074219 C 219.363281 176.78125 220.09375 176.441406 220.8125 176.054688 C 221.53125 175.671875 222.234375 175.238281 222.917969 174.761719 C 223.605469 174.285156 224.273438 173.769531 224.917969 173.207031 C 225.566406 172.648438 226.191406 172.046875 226.792969 171.40625 C 227.394531 170.765625 227.96875 170.085938 228.519531 169.375 C 229.070312 168.660156 229.589844 167.914062 230.085938 167.132812 C 230.578125 166.351562 231.042969 165.542969 231.472656 164.703125 C 231.90625 163.863281 232.304688 162.996094 232.671875 162.105469 C 233.039062 161.214844 233.371094 160.304688 233.667969 159.371094 C 233.96875 158.441406 234.230469 157.488281 234.453125 156.523438 C 234.679688 155.558594 234.871094 154.578125 235.019531 153.589844 C 235.171875 152.597656 235.285156 151.601562 235.363281 150.597656 C 235.441406 149.589844 235.476562 148.585938 235.476562 147.574219 C 235.476562 146.566406 235.441406 145.558594 235.363281 144.554688 C 235.285156 143.546875 235.171875 142.550781 235.019531 141.5625 C 234.871094 140.570312 234.679688 139.59375 234.453125 138.625 C 234.230469 137.660156 233.96875 136.710938 233.667969 135.777344 C 233.371094 134.84375 233.039062 133.933594 232.671875 133.042969 C 232.304688 132.152344 231.90625 131.289062 231.472656 130.449219 C 231.042969 129.609375 230.578125 128.796875 230.085938 128.019531 C 229.589844 127.238281 229.070312 126.488281 228.519531 125.777344 C 227.96875 125.0625 227.394531 124.386719 226.792969 123.746094 C 226.191406 123.105469 225.566406 122.503906 224.917969 121.941406 C 224.273438 121.382812 223.605469 120.863281 222.917969 120.386719 C 222.234375 119.910156 221.53125 119.480469 220.8125 119.09375 C 220.09375 118.707031 219.363281 118.367188 218.617188 118.074219 C 217.871094 117.78125 217.117188 117.535156 216.355469 117.339844 C 215.59375 117.140625 214.824219 116.992188 214.050781 116.894531 C 213.273438 116.796875 212.5 116.746094 211.722656 116.746094 L 202.734375 116.746094 C 202.4375 116.746094 202.152344 116.804688 201.875 116.917969 C 201.601562 117.03125 201.359375 117.191406 201.148438 117.402344 C 200.9375 117.613281 200.773438 117.855469 200.660156 118.128906 C 200.546875 118.40625 200.488281 118.691406 200.488281 118.988281 C 200.488281 119.285156 200.546875 119.570312 200.660156 119.847656 C 200.773438 120.121094 200.9375 120.363281 201.148438 120.574219 C 201.359375 120.785156 201.601562 120.945312 201.875 121.058594 C 202.152344 121.175781 202.4375 121.230469 202.734375 121.230469 L 211.722656 121.230469 C 212.386719 121.230469 213.046875 121.273438 213.710938 121.359375 C 214.371094 121.441406 215.027344 121.570312 215.679688 121.738281 C 216.332031 121.90625 216.976562 122.117188 217.613281 122.367188 C 218.25 122.617188 218.875 122.910156 219.488281 123.238281 C 220.101562 123.570312 220.703125 123.9375 221.289062 124.34375 C 221.875 124.75 222.445312 125.195312 222.996094 125.671875 C 223.550781 126.152344 224.082031 126.667969 224.597656 127.214844 C 225.109375 127.761719 225.601562 128.339844 226.070312 128.949219 C 226.542969 129.558594 226.988281 130.199219 227.410156 130.867188 C 227.832031 131.53125 228.226562 132.222656 228.59375 132.941406 C 228.964844 133.660156 229.304688 134.398438 229.617188 135.160156 C 229.933594 135.917969 230.214844 136.699219 230.46875 137.496094 C 230.726562 138.292969 230.949219 139.105469 231.140625 139.929688 C 231.335938 140.753906 231.496094 141.589844 231.625 142.4375 C 231.753906 143.28125 231.851562 144.136719 231.917969 144.992188 C 231.984375 145.851562 232.015625 146.710938 232.015625 147.574219 C 232.015625 148.4375 231.984375 149.296875 231.917969 150.15625 C 231.851562 151.015625 231.753906 151.867188 231.625 152.714844 C 231.496094 153.558594 231.335938 154.394531 231.140625 155.21875 C 230.949219 156.046875 230.726562 156.855469 230.46875 157.652344 C 230.214844 158.453125 229.933594 159.230469 229.617188 159.992188 C 229.304688 160.75 228.964844 161.492188 228.59375 162.207031 C 228.226562 162.925781 227.832031 163.617188 227.410156 164.285156 C 226.988281 164.953125 226.542969 165.589844 226.070312 166.199219 C 225.601562 166.808594 225.109375 167.386719 224.597656 167.9375 C 224.082031 168.484375 223.550781 168.996094 222.996094 169.476562 C 222.445312 169.957031 221.875 170.398438 221.289062 170.804688 C 220.703125 171.210938 220.101562 171.582031 219.488281 171.910156 C 218.875 172.242188 218.25 172.53125 217.613281 172.78125 C 216.976562 173.03125 216.332031 173.242188 215.679688 173.410156 C 215.027344 173.578125 214.371094 173.707031 213.710938 173.792969 C 213.046875 173.875 212.386719 173.917969 211.722656 173.917969 L 152.199219 173.917969 L 147.707031 167.191406 L 211.722656 167.191406 C 212.179688 167.191406 212.640625 167.160156 213.097656 167.097656 C 213.554688 167.035156 214.007812 166.941406 214.460938 166.816406 C 214.910156 166.691406 215.355469 166.535156 215.796875 166.347656 C 216.234375 166.160156 216.667969 165.945312 217.09375 165.699219 C 217.519531 165.453125 217.933594 165.179688 218.339844 164.875 C 218.742188 164.574219 219.136719 164.242188 219.519531 163.886719 C 219.902344 163.53125 220.269531 163.148438 220.625 162.738281 C 220.980469 162.332031 221.320312 161.902344 221.648438 161.445312 C 221.972656 160.992188 222.28125 160.515625 222.574219 160.019531 C 222.863281 159.523438 223.136719 159.007812 223.394531 158.472656 C 223.648438 157.941406 223.882812 157.390625 224.101562 156.824219 C 224.316406 156.257812 224.515625 155.675781 224.691406 155.082031 C 224.867188 154.488281 225.019531 153.882812 225.15625 153.269531 C 225.289062 152.65625 225.398438 152.03125 225.488281 151.402344 C 225.578125 150.773438 225.644531 150.136719 225.691406 149.496094 C 225.738281 148.859375 225.757812 148.21875 225.757812 147.574219 C 225.757812 146.933594 225.738281 146.292969 225.691406 145.652344 C 225.644531 145.011719 225.578125 144.378906 225.488281 143.746094 C 225.398438 143.117188 225.289062 142.496094 225.15625 141.878906 C 225.019531 141.265625 224.867188 140.660156 224.691406 140.066406 C 224.515625 139.472656 224.316406 138.894531 224.101562 138.328125 C 223.882812 137.761719 223.648438 137.210938 223.394531 136.675781 C 223.136719 136.140625 222.863281 135.625 222.574219 135.128906 C 222.28125 134.632812 221.972656 134.15625 221.648438 133.703125 C 221.320312 133.25 220.980469 132.816406 220.625 132.410156 C 220.269531 132.003906 219.902344 131.621094 219.519531 131.261719 C 219.136719 130.90625 218.742188 130.578125 218.339844 130.273438 C 217.933594 129.96875 217.519531 129.695312 217.09375 129.449219 C 216.667969 129.203125 216.234375 128.988281 215.796875 128.800781 C 215.355469 128.613281 214.910156 128.460938 214.460938 128.332031 C 214.007812 128.207031 213.554688 128.113281 213.097656 128.050781 C 212.640625 127.988281 212.179688 127.957031 211.722656 127.957031 L 147.707031 127.957031 C 136.476562 127.957031 138.722656 140.289062 138.722656 140.289062 L 138.722656 298.351562 L 79.199219 298.351562 L 79.199219 87.601562 " fill-opacity="1" fill-rule="nonzero"/></g></svg>